<svg width="25" height="26" viewBox="0 0 25 26" fill="none" xmlns="http://www.w3.org/2000/svg">
<path fill-rule="evenodd" clip-rule="evenodd" d="M12.5 3.48035C12.9315 3.48035 13.2812 3.83012 13.2812 4.2616V12.0741L21.0938 12.0741C21.5252 12.0741 21.875 12.4239 21.875 12.8553C21.875 13.2868 21.5252 13.6366 21.0938 13.6366L13.2812 13.6366L13.2812 21.4491C13.2812 21.8806 12.9315 22.2303 12.5 22.2303C12.0685 22.2303 11.7187 21.8806 11.7187 21.4491L11.7187 13.6366H3.90625C3.47478 13.6366 3.125 13.2868 3.125 12.8553C3.125 12.4239 3.47478 12.0741 3.90625 12.0741H11.7188V4.2616C11.7188 3.83012 12.0685 3.48035 12.5 3.48035Z" fill="#333333"/>
</svg>
