<svg width="16" height="17" viewBox="0 0 16 17" fill="none" xmlns="http://www.w3.org/2000/svg">
<path d="M8.44434 9.38894V7.03783C8.44434 5.26005 7.24878 4.27783 5.77767 4.27783H3.111C1.63989 4.27783 0.444336 5.2645 0.444336 7.03783V16.0556H7.55545" stroke="#FFA4C7" stroke-width="0.888889" stroke-linecap="round" stroke-linejoin="round"/>
<path d="M14.2222 11.6111H7.5555C6.8191 11.6111 6.22217 12.208 6.22217 12.9444V14.7222C6.22217 15.4586 6.8191 16.0555 7.5555 16.0555H14.2222C14.9586 16.0555 15.5555 15.4586 15.5555 14.7222V12.9444C15.5555 12.208 14.9586 11.6111 14.2222 11.6111Z" stroke="#FFA4C7" stroke-width="0.888889" stroke-linecap="round" stroke-linejoin="round"/>
<path d="M8.00011 9.38892H13.7779C13.8958 9.38892 14.0088 9.43576 14.0922 9.51909C14.1755 9.60243 14.2223 9.71549 14.2223 9.83336V11.6111H7.55566V9.83336C7.55566 9.71549 7.60251 9.60243 7.68584 9.51909C7.76918 9.43576 7.88224 9.38892 8.00011 9.38892Z" stroke="#FFA4C7" stroke-width="0.888889" stroke-linecap="round" stroke-linejoin="round"/>
<path d="M5.77775 2.5H3.11108V4.27778H5.77775V2.5Z" stroke="#FFA4C7" stroke-width="0.888889" stroke-linecap="round" stroke-linejoin="round"/>
<path d="M8.88883 3.16668C8.88883 2.87485 8.83137 2.58588 8.71968 2.31627C8.60799 2.04666 8.4443 1.80168 8.23795 1.59533C8.03159 1.38898 7.78661 1.22529 7.51701 1.11361C7.24741 1.00194 6.95843 0.944458 6.66661 0.944458H2.22217V2.50001H6.66661C6.84341 2.50001 7.01301 2.57025 7.13803 2.69528C7.26306 2.8203 7.33328 2.98987 7.33328 3.16668H8.88883Z" stroke="#FFA4C7" stroke-width="0.888889" stroke-linecap="round" stroke-linejoin="round"/>
<path d="M6.46679 8.75768C6.41346 8.46434 6.25346 7.5799 6.14679 6.9799C6.13595 6.92457 6.11004 6.87323 6.0719 6.83163C6.03381 6.79003 5.98493 6.75977 5.9307 6.74412C5.87653 6.72852 5.81901 6.72817 5.76461 6.7431C5.71021 6.75803 5.66097 6.78768 5.62235 6.82879L4.88901 7.61101H4.00011L3.26678 6.8199C3.22814 6.77879 3.1789 6.74914 3.12449 6.73421C3.07008 6.71928 3.01261 6.71963 2.95838 6.73523C2.90417 6.75088 2.85531 6.78114 2.81719 6.82274C2.77907 6.86434 2.75317 6.91568 2.74233 6.97101C2.63567 7.5799 2.47567 8.46434 2.42233 8.74879C2.36824 9.09821 2.40184 9.45559 2.52011 9.78879C2.66494 10.1855 2.92612 10.5292 3.26947 10.775C3.61283 11.0208 4.02238 11.1573 4.44457 11.1666C4.86568 11.158 5.27448 11.0228 5.61773 10.7787C5.96093 10.5345 6.22275 10.1927 6.36901 9.79768C6.48728 9.46448 6.52088 9.1071 6.46679 8.75768Z" fill="#FFA4C7"/>
</svg>
