<svg width="16" height="20" viewBox="0 0 16 20" fill="none" xmlns="http://www.w3.org/2000/svg">
<g clip-path="url(#clip0_4_120)">
<path d="M11.1112 4.44444H4.4446C4.14992 4.44444 3.8673 4.32738 3.65893 4.11901C3.45056 3.91063 3.3335 3.62802 3.3335 3.33333V1.11111C3.3335 0.816426 3.45056 0.533811 3.65893 0.325437C3.8673 0.117063 4.14992 0 4.4446 0H11.1112C11.406 0 11.6886 0.117063 11.8969 0.325437C12.1053 0.533811 12.2224 0.816426 12.2224 1.11111V3.33333C12.2224 3.62802 12.1053 3.91063 11.8969 4.11901C11.6886 4.32738 11.406 4.44444 11.1112 4.44444ZM4.4446 1.11111V3.33333H11.1112V1.11111H4.4446Z" fill="#FF7070"/>
<path d="M13.3333 20H2.22223C1.63285 20 1.06763 19.7659 0.650873 19.3492C0.234126 18.9325 0 18.3672 0 17.7778V9.14446C0.000762632 8.46687 0.208001 7.80565 0.594097 7.24884C0.980192 6.69202 1.52682 6.2661 2.16111 6.02782L4.08333 5.3056C4.18967 5.26587 4.28128 5.19452 4.34584 5.10116C4.4104 5.00779 4.44482 4.89688 4.44444 4.78337V3.88893C4.44444 3.74159 4.50298 3.60028 4.60717 3.49609C4.71135 3.39191 4.85266 3.33337 5 3.33337C5.14734 3.33337 5.28865 3.39191 5.39283 3.49609C5.49703 3.60028 5.55556 3.74159 5.55556 3.88893V4.78337C5.55553 5.12297 5.45177 5.45444 5.25816 5.73344C5.06455 6.01243 4.79033 6.22563 4.47223 6.34448L2.55 7.06671C2.12748 7.22587 1.76347 7.50994 1.50642 7.88112C1.24937 8.25231 1.11148 8.69296 1.11111 9.14446V17.7778C1.11111 18.0725 1.22818 18.3551 1.43655 18.5635C1.64493 18.7719 1.92753 18.889 2.22223 18.889H13.3333C13.628 18.889 13.9107 18.7719 14.119 18.5635C14.3274 18.3551 14.4444 18.0725 14.4444 17.7778V9.14446C14.4437 8.69229 14.3049 8.25117 14.0468 7.87992C13.7887 7.50866 13.4236 7.22497 13 7.06671L11.1111 6.34448C10.7878 6.23019 10.5077 6.01895 10.3088 5.73957C10.1099 5.46019 10.0021 5.12628 10 4.78337V3.88893C10 3.74159 10.0585 3.60028 10.1628 3.49609C10.2669 3.39191 10.4083 3.33337 10.5556 3.33337C10.7029 3.33337 10.8442 3.39191 10.9484 3.49609C11.0526 3.60028 11.1111 3.74159 11.1111 3.88893V4.78337C11.1108 4.89688 11.1452 5.00779 11.2098 5.10116C11.2743 5.19452 11.3659 5.26587 11.4722 5.3056L13.3944 6.02782C14.0288 6.2661 14.5753 6.69202 14.9615 7.24884C15.3476 7.80565 15.5548 8.46687 15.5556 9.14446V17.7778C15.5556 18.3672 15.3214 18.9325 14.9047 19.3492C14.4879 19.7659 13.9227 20 13.3333 20Z" fill="#FF7070"/>
<path d="M12.4445 17.4445H3.55556C3.40822 17.4445 3.26691 17.3859 3.16273 17.2817C3.05853 17.1776 3 17.0362 3 16.8889V8.55556C3 8.40822 3.05853 8.26691 3.16273 8.16272C3.26691 8.05853 3.40822 8 3.55556 8H12.4445C12.5918 8 12.7331 8.05853 12.8373 8.16272C12.9415 8.26691 13 8.40822 13 8.55556V16.8889C13 17.0362 12.9415 17.1776 12.8373 17.2817C12.7331 17.3859 12.5918 17.4445 12.4445 17.4445ZM4.11112 16.3333H11.8889V9.11114H4.11112V16.3333Z" fill="#FF7070"/>
<path d="M15.0001 10.5555H12.2223C12.075 10.5555 11.9337 10.4969 11.8295 10.3928C11.7252 10.2886 11.6667 10.1473 11.6667 9.99992C11.6667 9.85259 11.7252 9.71125 11.8295 9.60709C11.9337 9.50292 12.075 9.44434 12.2223 9.44434H15.0001C15.1474 9.44434 15.2887 9.50292 15.3929 9.60709C15.4971 9.71125 15.5557 9.85259 15.5557 9.99992C15.5557 10.1473 15.4971 10.2886 15.3929 10.3928C15.2887 10.4969 15.1474 10.5555 15.0001 10.5555Z" fill="#FF7070"/>
<path d="M3.33344 10.5555H1.11122C0.963875 10.5555 0.822569 10.4969 0.718382 10.3928C0.614196 10.2886 0.555664 10.1473 0.555664 9.99992C0.555664 9.85259 0.614196 9.71125 0.718382 9.60709C0.822569 9.50292 0.963875 9.44434 1.11122 9.44434H3.33344C3.48078 9.44434 3.62209 9.50292 3.72627 9.60709C3.83047 9.71125 3.889 9.85259 3.889 9.99992C3.889 10.1473 3.83047 10.2886 3.72627 10.3928C3.62209 10.4969 3.48078 10.5555 3.33344 10.5555Z" fill="#FF7070"/>
<path d="M7.77796 14.4444C7.63062 14.4444 7.48931 14.3859 7.38513 14.2817C7.28094 14.1775 7.22241 14.0363 7.22241 13.8889V10.5556C7.22241 10.4083 7.28094 10.2669 7.38513 10.1628C7.48931 10.0585 7.63062 10 7.77796 10C7.9253 10 8.06661 10.0585 8.1708 10.1628C8.27499 10.2669 8.33352 10.4083 8.33352 10.5556V13.8889C8.33352 14.0363 8.27499 14.1775 8.1708 14.2817C8.06661 14.3859 7.9253 14.4444 7.77796 14.4444Z" fill="#FF7070"/>
<path d="M9.44452 12.7777H6.11121C5.96387 12.7777 5.82256 12.7192 5.71838 12.615C5.6142 12.5108 5.55566 12.3695 5.55566 12.2222C5.55566 12.0749 5.6142 11.9335 5.71838 11.8294C5.82256 11.7251 5.96387 11.6666 6.11121 11.6666H9.44452C9.59186 11.6666 9.73319 11.7251 9.83736 11.8294C9.94161 11.9335 10.0001 12.0749 10.0001 12.2222C10.0001 12.3695 9.94161 12.5108 9.83736 12.615C9.73319 12.7192 9.59186 12.7777 9.44452 12.7777Z" fill="#FF7070"/>
</g>
<defs>
<clipPath id="clip0_4_120">
<rect width="15.8333" height="20" fill="white"/>
</clipPath>
</defs>
</svg>
