<svg width="16" height="17" viewBox="0 0 16 17" fill="none" xmlns="http://www.w3.org/2000/svg">
<g clip-path="url(#clip0_4_144)">
<mask id="mask0_4_144" style="mask-type:luminance" maskUnits="userSpaceOnUse" x="0" y="0" width="16" height="17">
<path d="M16 0.5H0V16.5H16V0.5Z" fill="white"/>
</mask>
<g mask="url(#mask0_4_144)">
<path d="M6.16878 6.1845C3.22211 5.95339 0.444336 5.1845 0.444336 4.2645C0.444336 3.16672 3.82656 2.27783 7.99989 2.27783C12.1732 2.27783 15.5554 3.16672 15.5554 4.2645C15.5554 5.1845 12.7777 5.95783 9.82656 6.1845" stroke="#4595FF" stroke-width="0.888889" stroke-linecap="round" stroke-linejoin="round"/>
<path d="M1.45312 5.18442C2.75979 4.63774 5.20422 4.2644 7.99978 4.2644C10.7953 4.2644 13.2398 4.63774 14.5464 5.18442" stroke="#4595FF" stroke-width="0.888889" stroke-linecap="round" stroke-linejoin="round"/>
<path d="M1.77767 7.98886C0.942114 7.66886 0.444336 7.2822 0.444336 6.86442V4.2644" stroke="#4595FF" stroke-width="0.888889" stroke-linecap="round" stroke-linejoin="round"/>
<path d="M15.5562 4.2644V6.86442C15.5562 7.78442 12.7073 8.6422 9.52954 8.89108" stroke="#4595FF" stroke-width="0.888889" stroke-linecap="round" stroke-linejoin="round"/>
<path d="M8.12063 5.45996H7.88507C6.85165 5.45996 6.01392 6.29769 6.01392 7.33107V7.56663C6.01392 8.60001 6.85165 9.43774 7.88507 9.43774H8.12063C9.154 9.43774 9.99169 8.60001 9.99169 7.56663V7.33107C9.99169 6.29769 9.154 5.45996 8.12063 5.45996Z" stroke="#4595FF" stroke-width="0.888889" stroke-linecap="round" stroke-linejoin="round"/>
<path d="M6.35995 6.27781H2.92439C2.59576 6.26577 2.27573 6.3843 2.03423 6.60746C1.79272 6.83066 1.64937 7.14035 1.6355 7.46892C1.64938 7.79786 1.79258 8.10799 2.03395 8.3319C2.27532 8.55577 2.59534 8.67532 2.92439 8.66448H6.35995" stroke="#4595FF" stroke-width="0.888889" stroke-linecap="round" stroke-linejoin="round"/>
<path d="M8.00037 7.98C8.29491 7.98 8.53371 7.7412 8.53371 7.44666C8.53371 7.15213 8.29491 6.91333 8.00037 6.91333C7.7058 6.91333 7.46704 7.15213 7.46704 7.44666C7.46704 7.7412 7.7058 7.98 8.00037 7.98Z" fill="#4595FF"/>
<path d="M5.21704 7.44666H7.99926" stroke="#4595FF" stroke-width="0.888889" stroke-linecap="round" stroke-linejoin="round"/>
<path d="M11.3333 12.7578C11.5969 12.7578 11.8548 12.6797 12.074 12.5331C12.2933 12.3866 12.4642 12.1784 12.5651 11.9348C12.666 11.6911 12.6924 11.423 12.641 11.1644C12.5895 10.9058 12.4625 10.6682 12.2761 10.4817C12.0896 10.2952 11.852 10.1682 11.5934 10.1168C11.3347 10.0654 11.0666 10.0918 10.823 10.1927C10.5794 10.2936 10.3711 10.4645 10.2246 10.6838C10.0781 10.903 9.99992 11.1608 9.99992 11.4245H5.99992C5.99992 11.1608 5.92174 10.903 5.77521 10.6838C5.62872 10.4645 5.42045 10.2936 5.17685 10.1927C4.93321 10.0918 4.66512 10.0654 4.40646 10.1168C4.14782 10.1682 3.91025 10.2952 3.72378 10.4817C3.5373 10.6682 3.41032 10.9058 3.35887 11.1644C3.30742 11.423 3.33383 11.6911 3.43474 11.9348C3.53566 12.1784 3.70656 12.3866 3.92582 12.5331C4.14509 12.6797 4.40288 12.7578 4.66658 12.7578C4.40288 12.7578 4.14509 12.8361 3.92582 12.9826C3.70656 13.1291 3.53566 13.3373 3.43474 13.581C3.33383 13.8246 3.30742 14.0926 3.35887 14.3513C3.41032 14.6099 3.5373 14.8475 3.72378 15.034C3.91025 15.2205 4.14782 15.3474 4.40646 15.3989C4.66512 15.4503 4.93321 15.4239 5.17685 15.323C5.42045 15.2221 5.62872 15.0512 5.77521 14.8319C5.92174 14.6127 5.99992 14.3549 5.99992 14.0912H9.99992C9.99992 14.3549 10.0781 14.6127 10.2246 14.8319C10.3711 15.0512 10.5794 15.2221 10.823 15.323C11.0666 15.4239 11.3347 15.4503 11.5934 15.3989C11.852 15.3474 12.0896 15.2205 12.2761 15.034C12.4625 14.8475 12.5895 14.6099 12.641 14.3513C12.6924 14.0926 12.666 13.8246 12.5651 13.581C12.4642 13.3373 12.2933 13.1291 12.074 12.9826C11.8548 12.8361 11.5969 12.7578 11.3333 12.7578Z" stroke="#4595FF" stroke-width="0.888889" stroke-linecap="round" stroke-linejoin="round"/>
<path d="M8.11621 9.43774V11.4244" stroke="#4595FF" stroke-width="0.888889" stroke-linecap="round" stroke-linejoin="round"/>
</g>
</g>
<defs>
<clipPath id="clip0_4_144">
<rect width="16" height="16" fill="white" transform="translate(0 0.5)"/>
</clipPath>
</defs>
</svg>
